<?xml version="1.0" standalone="no"?>
<!DOCTYPE svg PUBLIC "-//W3C//DTD SVG 20010904//EN"
 "http://www.w3.org/TR/2001/REC-SVG-20010904/DTD/svg10.dtd">
<svg version="1.0" xmlns="http://www.w3.org/2000/svg"
 width="299.000000pt" height="247.000000pt" viewBox="0 0 299.000000 247.000000"
 preserveAspectRatio="xMidYMid meet">
<metadata>
Created by potrace 1.16, written by Peter Selinger 2001-2019
</metadata>
<g transform="translate(0.000000,247.000000) scale(0.100000,-0.100000)"
fill="#000000" stroke="none">
<path d="M1675 2273 c-55 -47 -202 -173 -327 -279 l-228 -195 -2 -406 -3 -407
-121 -56 c-66 -30 -168 -77 -227 -104 -59 -27 -107 -51 -107 -55 0 -3 33 -42
73 -87 39 -44 93 -105 119 -135 25 -30 54 -64 65 -75 10 -12 81 -94 158 -183
77 -88 142 -161 145 -161 4 0 15 8 26 18 10 9 46 40 79 67 33 27 123 104 200
170 77 66 188 161 248 210 l107 89 0 332 0 331 -75 34 c-41 19 -74 36 -75 39
0 3 129 65 288 138 158 73 298 139 310 146 24 13 23 14 -90 143 -356 407 -424
486 -431 499 -4 8 -13 14 -20 14 -7 -1 -57 -40 -112 -87z"/>
</g>
</svg>
